<?xml version="1.0" encoding="iso-8859-1"?>
<!-- Generator: Adobe Illustrator 19.0.0, SVG Export Plug-In . SVG Version: 6.00 Build 0)  -->
<svg version="1.1" id="Capa_1" xmlns="http://www.w3.org/2000/svg" xmlns:xlink="http://www.w3.org/1999/xlink" x="0px" y="0px"
	 viewBox="0 0 512.001 512.001" style="enable-background:new 0 0 512.001 512.001;" xml:space="preserve">
<g>
	<g>
		<path d="M166.694,344.453V234.101c0-16.407-13.348-29.755-29.755-29.755c-16.41,0-29.76,13.348-29.76,29.755v42.34H71.554v10.002
			H35.918v20.003H0.292v108.851l23.754,57.009v39.695h15.002v-42.695l-23.754-57.009v-90.848h20.623v32.505H50.92v-52.509h20.633
			v52.509h15.002v-62.51h20.623v62.51h15.003V234.101c0-8.134,6.62-14.752,14.757-14.752c8.134,0,14.752,6.618,14.752,14.752
			v125.354h38.631v52.191l-35.631,57.009v43.346h15.003v-39.043l35.631-57.009v-71.496H166.694z"/>
	</g>
</g>
<g>
	<g>
		<path d="M230.55,181.296c-0.712-1.603-1.471-3.201-2.255-4.749l-13.383,6.782c0.67,1.321,1.319,2.688,1.928,4.058
			c4.968,11.186,7.486,23.022,7.486,35.18c0,4.208-0.311,8.456-0.924,12.627l14.842,2.182c0.719-4.891,1.084-9.873,1.084-14.809
			C239.328,208.297,236.375,194.413,230.55,181.296z"/>
	</g>
</g>
<g>
	<g>
		<path d="M79.506,138.635c-17.371,11.935-30.449,28.762-37.819,48.662l14.068,5.21c6.289-16.982,17.44-31.334,32.246-41.507
			L79.506,138.635z"/>
	</g>
</g>
<g>
	<g>
		<path d="M50.303,222.839c0-5.702,0.568-11.44,1.689-17.051l-14.711-2.94c-1.314,6.578-1.98,13.304-1.98,19.99
			c0,14.27,2.953,28.155,8.777,41.27l13.711-6.089C52.822,246.833,50.303,234.998,50.303,222.839z"/>
	</g>
</g>
<g>
	<g>
		<path d="M137.18,120.691c-14.27,0-28.155,2.953-41.267,8.776c-0.804,0.355-1.602,0.722-2.392,1.097l6.433,13.553
			c0.675-0.32,1.355-0.633,2.044-0.938c11.186-4.968,23.022-7.486,35.181-7.486c4.954,0,9.948,0.43,14.842,1.277l2.561-14.781
			C148.844,121.195,142.989,120.691,137.18,120.691z"/>
	</g>
</g>
<g>
	<g>
		<path d="M220.324,248.653c-5.289,16.88-15.367,31.542-29.145,42.403l9.287,11.781c16.161-12.738,27.979-29.924,34.175-49.699
			L220.324,248.653z"/>
	</g>
</g>
<g>
	<g>
		<path d="M170.245,126.194l-4.851,14.198c17.14,5.855,31.776,16.632,42.329,31.167l12.141-8.814
			C207.484,145.693,190.326,133.054,170.245,126.194z"/>
	</g>
</g>
<g>
	<g>
		<path d="M473.37,365.227c-20.681,0-37.506,16.825-37.506,37.506s16.825,37.506,37.506,37.506s37.506-16.825,37.506-37.506
			S494.05,365.227,473.37,365.227z M473.37,425.237c-12.408,0-22.504-10.096-22.504-22.504s10.096-22.504,22.504-22.504
			s22.504,10.096,22.504,22.504S485.778,425.237,473.37,425.237z"/>
	</g>
</g>
<g>
	<g>
		<polygon points="277.858,396.732 220.893,311.047 208.399,319.353 269.815,411.735 391.96,411.735 391.96,396.732 		"/>
	</g>
</g>
<g>
	<g>
		<rect x="406.967" y="396.735" width="13.898" height="15.003"/>
	</g>
</g>
<g>
	<g>
		<rect x="299.839" y="426.74" width="112.018" height="15.002"/>
	</g>
</g>
<g>
	<g>
		<rect x="269.834" y="426.74" width="15.002" height="15.002"/>
	</g>
</g>
<g>
	<g>
		<rect x="299.839" y="456.745" width="112.018" height="15.002"/>
	</g>
</g>
<g>
	<g>
		<rect x="269.834" y="456.745" width="15.002" height="15.002"/>
	</g>
</g>
<g>
	<g>
		<rect x="269.834" y="486.75" width="15.002" height="15.003"/>
	</g>
</g>
<g>
	<g>
		<rect x="299.839" y="486.75" width="112.018" height="15.003"/>
	</g>
</g>
<g>
	<g>
		<rect x="327.244" y="65.008" width="13.937" height="15.002"/>
	</g>
</g>
<g>
	<g>
		<polygon points="286.26,65.008 212.508,132.327 222.621,143.407 292.078,80.01 312.241,80.01 312.241,65.008 		"/>
	</g>
</g>
<g>
	<g>
		<polygon points="356.684,0 356.684,57.509 371.686,57.509 371.686,15.002 414.193,15.002 414.193,0 		"/>
	</g>
</g>
<g>
	<g>
		<polygon points="454.2,0 454.2,15.002 496.707,15.002 496.707,57.509 511.709,57.509 511.709,0 		"/>
	</g>
</g>
<g>
	<g>
		<polygon points="496.707,97.516 496.707,140.023 454.2,140.023 454.2,155.025 511.709,155.025 511.709,97.516 		"/>
	</g>
</g>
<g>
	<g>
		<polygon points="371.686,140.023 371.686,97.516 356.684,97.516 356.684,155.025 414.193,155.025 414.193,140.023 		"/>
	</g>
</g>
<g>
	<g>
		<path d="M390.295,216.152l-7.985-12.699c-21.266,13.371-33.961,36.334-33.961,61.426c0.001,5.333,0.583,10.652,1.73,15.81
			l14.645-3.259c-0.91-4.091-1.372-8.314-1.373-12.553C363.352,244.977,373.424,226.763,390.295,216.152z"/>
	</g>
</g>
<g>
	<g>
		<path d="M420.86,192.366c-8.04,0.001-15.941,1.31-23.483,3.89l4.856,14.195c5.976-2.044,12.243-3.081,18.627-3.082
			c17.654,0,34.083,7.94,45.073,21.788l11.75-9.328C463.831,202.375,443.119,192.366,420.86,192.366z"/>
	</g>
</g>
<g>
	<g>
		<path d="M486.488,234.003l-13.57,6.396c3.619,7.679,5.453,15.915,5.453,24.479c0,24.315-15.388,46.106-38.292,54.222l5.011,14.141
			c28.88-10.237,48.284-37.71,48.284-68.364C493.373,254.086,491.057,243.698,486.488,234.003z"/>
	</g>
</g>
<g>
	<g>
		<path d="M427.18,322.044c-2.08,0.228-4.207,0.343-6.319,0.343c-21.902,0-42.23-12.744-51.788-32.466l-13.5,6.542
			c12.048,24.862,37.675,40.927,65.288,40.927c2.654,0,5.329-0.146,7.948-0.431L427.18,322.044z"/>
	</g>
</g>
<g>
	<g>
		<path d="M52.801,1.667c-28.953,0-52.509,23.556-52.509,52.509s23.555,52.509,52.509,52.509c28.953,0,52.509-23.556,52.509-52.509
			S81.753,1.667,52.801,1.667z M52.801,91.682c-20.681,0-37.506-16.825-37.506-37.506S32.119,16.67,52.801,16.67
			s37.506,16.825,37.506,37.506S73.482,91.682,52.801,91.682z"/>
	</g>
</g>
<g>
	<g>
		<path d="M397.357,228.726v72.303l66.15-36.152L397.357,228.726z M412.36,254.021l19.864,10.856l-19.864,10.856V254.021z"/>
	</g>
</g>
<g>
	<g>
		<rect x="251.831" y="237.709" width="50.008" height="15.003"/>
	</g>
</g>
<g>
	<g>
		<rect x="316.842" y="237.709" width="15.003" height="15.003"/>
	</g>
</g>
<g>
	<g>
		<polygon points="144.316,51.675 144.316,66.678 159.818,66.678 159.818,98.183 174.821,98.183 174.821,51.675 		"/>
	</g>
</g>
<g>
	<g>
		<rect x="113.809" y="51.675" width="15.503" height="15.002"/>
	</g>
</g>
<g>
	<g>
		<path d="M203.386,194.018l-13.762,5.976c1.757,4.046,3.04,8.304,3.815,12.657l14.77-2.627
			C207.23,204.521,205.608,199.136,203.386,194.018z"/>
	</g>
</g>
<g>
	<g>
		<path d="M194.112,227.627c-0.382,4.412-1.274,8.772-2.654,12.963l14.249,4.692c1.741-5.291,2.869-10.796,3.351-16.362
			L194.112,227.627z"/>
	</g>
</g>
<g>
	<g>
		<path d="M97.212,162.881c-2.966,1.993-5.814,4.233-8.464,6.654c-1.464,1.337-2.886,2.746-4.228,4.189l10.988,10.215
			c1.063-1.143,2.192-2.262,3.359-3.328c2.104-1.923,4.363-3.699,6.714-5.279L97.212,162.881z"/>
	</g>
</g>
<g>
	<g>
		<path d="M80.306,223.37l-15,0.17c0.063,5.587,0.775,11.162,2.117,16.57l14.561-3.614C80.921,232.213,80.357,227.797,80.306,223.37
			z"/>
	</g>
</g>
<g>
	<g>
		<path d="M73.569,189.165c-2.594,4.933-4.614,10.18-6.003,15.595l14.531,3.727c1.1-4.286,2.696-8.437,4.749-12.338L73.569,189.165z
			"/>
	</g>
</g>
<g>
	<g>
		<path d="M190.483,174.137c-2.681-2.935-5.614-5.66-8.714-8.097l-9.273,11.793c2.457,1.932,4.782,4.094,6.91,6.423
			c0.857,0.939,1.695,1.919,2.49,2.913l11.719-9.367C192.617,176.551,191.561,175.319,190.483,174.137z"/>
	</g>
</g>
<g>
	<g>
		<path d="M87.481,250.421l-13.106,7.302c2.704,4.855,5.992,9.413,9.772,13.548l11.076-10.12
			C92.226,257.872,89.621,254.261,87.481,250.421z"/>
	</g>
</g>
<g>
	<g>
		<path d="M184.94,254.065c-2.422,3.671-5.289,7.075-8.521,10.12l10.287,10.92c4.077-3.839,7.696-8.137,10.757-12.776
			L184.94,254.065z"/>
	</g>
</g>
<g>
	<g>
		<path d="M130.531,151.008c-5.566,0.523-11.065,1.694-16.342,3.48l4.809,14.212c4.176-1.413,8.527-2.34,12.937-2.755
			L130.531,151.008z"/>
	</g>
</g>
<g>
	<g>
		<path d="M149.431,151.716l-2.513,14.789c4.365,0.742,8.635,1.991,12.692,3.712l5.858-13.811
			C160.338,154.23,154.943,152.652,149.431,151.716z"/>
	</g>
</g>
<g>
	<g>
		<polygon points="441.698,70.011 441.698,52.509 426.695,52.509 426.695,70.011 409.192,70.011 409.192,85.014 426.695,85.014 
			426.695,102.517 441.698,102.517 441.698,85.014 459.2,85.014 459.2,70.011 		"/>
	</g>
</g>
<g>
	<g>
		<polygon points="66.398,40.821 55.734,30.269 32.079,54.176 55.734,78.083 66.398,67.531 53.184,54.176 		"/>
	</g>
</g>
<g>
	<g>
		<rect x="35.296" y="414.238" width="15.003" height="14.002"/>
	</g>
</g>
<g>
	<g>
		<rect x="35.296" y="369.231" width="15.003" height="30.005"/>
	</g>
</g>
<g>
	<g>
		<rect x="128.981" y="468.907" width="15.002" height="34.006"/>
	</g>
</g>
<g>
	<g>
		<polygon points="138.315,374.228 138.315,389.231 160.818,389.231 160.818,411.735 175.821,411.735 175.821,374.228 		"/>
	</g>
</g>
<g>
</g>
<g>
</g>
<g>
</g>
<g>
</g>
<g>
</g>
<g>
</g>
<g>
</g>
<g>
</g>
<g>
</g>
<g>
</g>
<g>
</g>
<g>
</g>
<g>
</g>
<g>
</g>
<g>
</g>
</svg>
