<?xml version="1.0" encoding="UTF-8"?>
<svg xmlns="http://www.w3.org/2000/svg" id="icons" viewBox="0 0 60 60" width="512" height="512"><path d="M57,52V22.97a2.069,2.069,0,0,0,2.333-1.9l.66-7.841v-.009A2.064,2.064,0,0,0,59.4,11.6a2.039,2.039,0,0,0-1.628-.593l-7.832.659a2.082,2.082,0,0,0-1.813,1.38,2.026,2.026,0,0,0,.473,2.164l1.417,1.417A93.6,93.6,0,0,1,6.724,39.114l-4.365.959A2.989,2.989,0,0,0,.07,43.641,3.008,3.008,0,0,0,3,46H3v6a3,3,0,0,0-3,3v2a3,3,0,0,0,3,3H57a3,3,0,0,0,3-3V55A3,3,0,0,0,57,52ZM43,52V29.828q1.008-.691,2-1.408V52ZM29,52V37.844q1.006-.472,2-.969V52ZM15,52v-8.83q1-.3,2-.616V52Zm4-10.114q4.07-1.395,8-3.123V52H19Zm14-6.023q4.106-2.157,8-4.69V52H33Zm14-8.92q3.759-2.862,7.253-6.083l.747.748V52H47ZM2.024,43.215a1,1,0,0,1,.134-.758.981.981,0,0,1,.625-.43l4.369-.959a95.6,95.6,0,0,0,44.99-23.687,1,1,0,0,0,.022-1.437l-2.159-2.213a.1.1,0,0,1,.1-.074l7.885-.644a.057.057,0,0,1,.014.05l-.66,7.842c0,.016-.005.064-.136.08l-2.22-2.221a1,1,0,0,0-1.393-.021,97.462,97.462,0,0,1-46,24.281c-.2.044-.546.126-.96.224A35.417,35.417,0,0,1,3,44,1,1,0,0,1,2.024,43.215ZM5,45.678c.624-.136,1.333-.3,2.092-.484.4-.1.722-.173.92-.216,1.677-.368,3.337-.791,4.988-1.243V52H5ZM58,57a1,1,0,0,1-1,1H3a1,1,0,0,1-1-1V55a1,1,0,0,1,1-1H57a1,1,0,0,1,1,1Z"/><path d="M16,19a3,3,0,0,0,2.816-2H20a1,1,0,0,0,0-2H18.816A3,3,0,0,0,17,13.185V10a1,1,0,1,0-2,0v3.184A2.993,2.993,0,0,0,16,19Zm0-4a1,1,0,1,1-1,1A1,1,0,0,1,16,15Z"/><path d="M16,32A16,16,0,1,0,0,16,16.019,16.019,0,0,0,16,32ZM16,2A14,14,0,1,1,2,16,14.015,14.015,0,0,1,16,2Z"/><path d="M16,7a1,1,0,0,0,1-1V5a1,1,0,0,0-2,0V6A1,1,0,0,0,16,7Z"/><path d="M8.222,9.637A1,1,0,0,0,9.636,8.223l-.707-.707A1,1,0,1,0,7.515,8.93Z"/><path d="M7,16a1,1,0,0,0-1-1H5a1,1,0,0,0,0,2H6A1,1,0,0,0,7,16Z"/><path d="M8.222,24.779a1,1,0,0,0,.707-.293l.707-.707a1,1,0,0,0-1.414-1.414l-.707.707a1,1,0,0,0,.707,1.707Z"/><path d="M16,25a1,1,0,0,0-1,1v1a1,1,0,1,0,2,0V26A1,1,0,0,0,16,25Z"/><path d="M23.071,24.486a1,1,0,0,0,1.414-1.414l-.707-.707a1,1,0,1,0-1.414,1.414Z"/><path d="M26,17h1a1,1,0,0,0,0-2H26a1,1,0,0,0,0,2Z"/><path d="M23.071,9.93a1,1,0,0,0,.707-.293l.707-.707a1,1,0,0,0-1.414-1.414l-.707.707a1,1,0,0,0,.707,1.707Z"/></svg>
