<svg id="svg31332" height="512" viewBox="0 0 16.933333 16.933334" width="512" xmlns="http://www.w3.org/2000/svg" xmlns:svg="http://www.w3.org/2000/svg"><g id="layer1" transform="translate(0 -280.067)"><path id="path6950" d="m5.8208308 280.59582c-.146118.00001-.264567.11846-.264583.26458v3.96875c.000016.14612.118465.26457.264583.26458h3.968751c.146118-.00001.2645672-.11846.2645832-.26458 0-.49685-.08567-.97488-.2433962-1.41852-.117845-.33313-.617521-.15552-.498678.17725.108481.30513.177821.64028.202573.97669h-3.429249v-3.43132c.900173.065 1.710187.4556 2.318721 1.04903h-.731737c-.360696-.008-.360696.53717 0 .52917h5.5567662v.7953c0 .35312.529683.35312.529683 0v-1.05885c.000529-.14713-.119005-.26647-.266134-.26562h-4.3702742c-.775785-.96655-1.967346-1.58646-3.301609-1.58646zm-1.058333 1.05936c-2.334871 0-4.23229866 1.89743-4.23229866 4.2323 0 1.87338 1.21930846 3.46245 2.90989766 4.01836v1.53841c0 .35312.529686.35312.529686 0v-3.7052c.0019-.14938-.120394-.2706-.269751-.26768-.145516.003-.261649.12215-.259935.26768v1.60714c-1.3918138-.53207-2.3828001-1.87674-2.3828001-3.45871 0-1.95535 1.5231161-3.55158 3.4416521-3.69331v3.69331c.000529.14541.118142.26304.263549.26355h3.695899c-.141735 1.91854-1.740554 3.44165-3.695899 3.44165-.331332-.0118-.369337.517 0 .5271 2.334871 0 4.232299-1.89743 4.232299-4.2323-.000529-.1454-.118142-.26303-.263549-.26355h-3.705201v-3.7052c-.000529-.1454-.118142-.26303-.263549-.26355zm7.6739512 3.17345c-.35312 0-.35312.52969 0 .52969h3.17345c.353121 0 .353121-.52969 0-.52969zm-1.058851 1.58802h2.644801c.360696.008.360696-.53717 0-.52917h-2.658494c-.358415.0255-.331814.53945.01371.52917zm3.703134 0h.529167c.360696.008.360696-.53717 0-.52917h-.54183c-.35724.0242-.332658.53794.01267.52917zm-3.703134 1.05885h4.232301c.360696.008.360696-.53717 0-.52917h-4.245994c-.358415.0255-.331814.53945.01371.52917zm0 1.05833h.529685c.345064-.008.345064-.52153 0-.52917h-.543378c-.358444.0254-.33184.53948.01371.52917zm1.585949 0h2.646352c.345064-.008.345064-.52153 0-.52917h-2.659012c-.357267.0242-.332685.53796.01265.52917zm1.853634 1.05885c-.435242 0-.794782.35747-.794782.79272 0 .0825.0164.16065.04031.23564l-.925008.69143c-.125759-.0844-.276367-.13384-.4377-.13384-.274074 0-.516757.14279-.659392.35709l-.670758-.16795c-.03965-.39961-.377934-.71883-.787032-.71882-.43524.00001-.7927192.36006-.7927192.7953 0 .0815.01601.15882.03927.23306l-.924491.69401c-.125759-.0844-.275854-.13435-.437181-.13435-.435245-.00001-.795301.36005-.795301.7953 0 .43524.360056.79271.795301.79271.435239 0 .792715-.35748.792715-.79271 0-.0826-.01646-.16097-.04031-.23617l.9244912-.69246c.125834.0842.276726.13332.438217.13333.273666 0 .51713-.14182.660423-.35502l.671793.16795c.03945.39939.375868.71624.784966.71623.435243.00001.792716-.35747.792716-.79272 0-.082-.01627-.15986-.03979-.23461l.92501-.69453c.126291.0844.277508.13436.439248.13436.435245.00001.792718-.35799.792718-.79323 0-.43525-.357476-.79272-.792718-.79272zm0 .5271c.149257 0 .263551.11636.263551.26562s-.114294.26355-.263551.26355-.265615-.11429-.265615-.26355.116358-.26562.265615-.26562zm-4.234365 1.05885c.149256 0 .265615.11636.265615.26562s-.116359.26355-.265615.26355c-.149262 0-.263552-.11429-.263552-.26355s.11429-.26562.263552-.26562zm2.117182.52917c.149257 0 .263549.11636.263549.26561 0 .14926-.114292.26356-.263549.26356-.149256 0-.263549-.1143-.263549-.26356 0-.14925.114293-.26561.263549-.26561zm-5.5567662 4.76353h8.9963502c.360664.008.360664-.53714 0-.52917h-.529683v-3.43958c.000529-.14612-.117433-.26503-.263551-.26561h-1.058334c-.146926-.00053-.266173.11869-.265615.26561v3.43958h-.529685v-1.85363c-.000582-.14531-.118237-.26297-.263549-.26355h-1.058333c-.145312.00053-.262967.11824-.263549.26355v1.85363h-.529685v-2.38073c.000529-.14693-.118687-.26617-.265616-.26561h-1.058333c-.1461222.00052-.2641102.11949-.2635522.26561v2.38073h-.529682v-1.32446c-.000529-.14612-.119499-.26411-.265618-.26355h-1.056264c-.14632-.00079-.265549.11723-.266134.26355v1.32446h-.54183c-.357269.0242-.332684.53797.01267.52917zm-4.761468-3.7052c-.3531208 0-.3531208.52969 0 .52969h3.17345c.35312 0 .35312-.52969 0-.52969zm6.085935 0c.14926 0 .263549.11688.263549.26614 0 .14925-.114289.26355-.263549.26355-.149256 0-.265617-.1143-.265617-.26355 0-.14926.116361-.26614.265617-.26614zm6.0838672 0h.529166v3.17603h-.529166zm-13.2286514 1.58802h2.6468682c.345035-.008.345035-.52151 0-.52917h-2.660563c-.35841516.0255-.33181136.53945.013705.52917zm3.7031322 0h.529167c.345035-.008.345035-.52151 0-.52917h-.541827c-.357235.0243-.332656.53793.01265.52917zm5.2932172-.52917h.529167v2.11718h-.529167zm2.117185.52917h.527098v1.58801h-.527098zm-11.1135344 1.05885h4.2322992c.360696.008.360696-.53717 0-.52917h-4.245994c-.35841516.0255-.33181136.53945.013705.52917zm6.8791672-.52917h.529166v1.05833h-.529166zm-6.8791672 1.5875h.5291667c.3606645.008.3606645-.53714 0-.52917h-.5428615c-.35844696.0254-.33184046.53948.013705.52917zm1.5880162 0h2.644283c.360664.008.360664-.53714 0-.52917h-2.657978c-.358442.0254-.331835.53948.0137.52917z" font-variant-ligatures="normal" font-variant-position="normal" font-variant-caps="normal" font-variant-numeric="normal" font-variant-alternates="normal" font-feature-settings="normal" text-indent="0" text-align="start" text-decoration-line="none" text-decoration-style="solid" text-decoration-color="rgb(0,0,0)" text-transform="none" text-orientation="mixed" white-space="normal" shape-padding="0" isolation="auto" mix-blend-mode="normal" solid-color="rgb(0,0,0)" solid-opacity="1" vector-effect="none"/></g></svg>